<svg width="28" height="28" viewBox="0 0 28 28" fill="none" xmlns="http://www.w3.org/2000/svg">
<path d="M18.6667 23.1667C17.7384 23.1667 16.8482 22.7979 16.1918 22.1416C15.5354 21.4852 15.1667 20.5949 15.1667 19.6667C15.1667 18.7384 15.5354 17.8482 16.1918 17.1918C16.8482 16.5354 17.7384 16.1667 18.6667 16.1667C19.5949 16.1667 20.4852 16.5354 21.1415 17.1918C21.7979 17.8482 22.1667 18.7384 22.1667 19.6667C22.1667 20.5949 21.7979 21.4852 21.1415 22.1416C20.4852 22.7979 19.5949 23.1667 18.6667 23.1667ZM9.33334 23.1667C8.40508 23.1667 7.51484 22.7979 6.85846 22.1416C6.20208 21.4852 5.83334 20.5949 5.83334 19.6667C5.83334 18.7384 6.20208 17.8482 6.85846 17.1918C7.51484 16.5354 8.40508 16.1667 9.33334 16.1667C10.2616 16.1667 11.1518 16.5354 11.8082 17.1918C12.4646 17.8482 12.8333 18.7384 12.8333 19.6667C12.8333 20.5949 12.4646 21.4852 11.8082 22.1416C11.1518 22.7979 10.2616 23.1667 9.33334 23.1667ZM18.6667 13.8333C17.7384 13.8333 16.8482 13.4646 16.1918 12.8082C15.5354 12.1518 15.1667 11.2616 15.1667 10.3333C15.1667 9.40509 15.5354 8.51485 16.1918 7.85847C16.8482 7.20209 17.7384 6.83334 18.6667 6.83334C19.5949 6.83334 20.4852 7.20209 21.1415 7.85847C21.7979 8.51485 22.1667 9.40509 22.1667 10.3333C22.1667 11.2616 21.7979 12.1518 21.1415 12.8082C20.4852 13.4646 19.5949 13.8333 18.6667 13.8333ZM9.33334 13.8333C8.40508 13.8333 7.51484 13.4646 6.85846 12.8082C6.20208 12.1518 5.83334 11.2616 5.83334 10.3333C5.83334 9.40509 6.20208 8.51485 6.85846 7.85847C7.51484 7.20209 8.40508 6.83334 9.33334 6.83334C10.2616 6.83334 11.1518 7.20209 11.8082 7.85847C12.4646 8.51485 12.8333 9.40509 12.8333 10.3333C12.8333 11.2616 12.4646 12.1518 11.8082 12.8082C11.1518 13.4646 10.2616 13.8333 9.33334 13.8333Z" fill="black"/>
</svg>
